<svg width="32" height="32" viewBox="0 0 32 32" fill="none" xmlns="http://www.w3.org/2000/svg">
<circle cx="16" cy="16" r="16" fill="#D9F5EE"/>
<g clip-path="url(#clip0_701_619)">
<path d="M20.9427 7.47499C19.4342 6.59457 17.7867 6.15445 16.0005 6.15445C14.214 6.15445 12.5665 6.59457 11.058 7.47499C9.54955 8.35545 8.35509 9.54991 7.47484 11.0582C6.59442 12.5668 6.1543 14.2143 6.1543 16.0006C6.1543 17.992 6.6968 19.7997 7.78242 21.4235C8.86784 23.0477 10.2908 24.2484 12.0517 25.026C12.0173 24.1115 12.0729 23.3552 12.2184 22.7569L13.4875 17.398C13.2738 16.9793 13.167 16.458 13.167 15.8339C13.167 15.1074 13.3508 14.5004 13.7183 14.0135C14.0856 13.5261 14.5344 13.2824 15.0644 13.2824C15.4916 13.2824 15.8208 13.4233 16.0517 13.7057C16.2824 13.9876 16.3979 14.3425 16.3979 14.7697C16.3979 15.0348 16.3486 15.3576 16.2506 15.7377C16.1521 16.1181 16.0239 16.5582 15.866 17.0583C15.7079 17.5581 15.5947 17.9577 15.5262 18.2569C15.4063 18.7782 15.5048 19.2247 15.8211 19.5966C16.1371 19.9685 16.556 20.1542 17.0775 20.1542C17.9921 20.1542 18.7421 19.6459 19.3276 18.6287C19.913 17.6116 20.2058 16.3766 20.2058 14.9234C20.2058 13.8039 19.8448 12.8934 19.1225 12.1926C18.4002 11.492 17.3936 11.1413 16.1033 11.1413C14.6587 11.1413 13.4898 11.6052 12.5969 12.5322C11.7037 13.4597 11.2571 14.5688 11.2571 15.859C11.2571 16.6283 11.4752 17.2738 11.911 17.7951C12.0562 17.9661 12.1033 18.1497 12.052 18.3461C12.0348 18.3976 12.0007 18.5257 11.9495 18.7307C11.8983 18.9357 11.8639 19.0684 11.8469 19.1281C11.7784 19.4018 11.6161 19.4873 11.3595 19.3845C10.7013 19.1111 10.2013 18.6368 9.85958 17.9615C9.51769 17.2865 9.34683 16.5045 9.34683 15.6155C9.34683 15.0429 9.4386 14.4702 9.62235 13.8975C9.8061 13.3248 10.0922 12.7715 10.4814 12.2371C10.8701 11.7033 11.336 11.2308 11.8789 10.8206C12.4216 10.4102 13.0819 10.0815 13.8598 9.83318C14.6374 9.58554 15.4752 9.46154 16.3727 9.46154C17.5863 9.46154 18.6761 9.7308 19.6418 10.2691C20.6076 10.8077 21.3449 11.5044 21.8535 12.359C22.3618 13.2136 22.6163 14.128 22.6163 15.1027C22.6163 16.3848 22.3939 17.5387 21.9496 18.5644C21.5052 19.5901 20.8769 20.3956 20.0649 20.981C19.2527 21.5663 18.3296 21.8591 17.2956 21.8591C16.7741 21.8591 16.287 21.7374 15.834 21.4937C15.3807 21.25 15.0688 20.9616 14.898 20.6282C14.5134 22.1408 14.2826 23.043 14.2056 23.3332C14.0431 23.9403 13.7098 24.6409 13.2055 25.4358C14.1201 25.7093 15.0517 25.8459 16.0005 25.8459C17.7867 25.8459 19.4342 25.4058 20.9427 24.5256C22.4511 23.6451 23.6456 22.4507 24.5261 20.942C25.4063 19.4335 25.8466 17.7863 25.8466 15.9998C25.8466 14.2133 25.4063 12.566 24.5261 11.0574C23.6458 9.54991 22.4511 8.35545 20.9427 7.47499Z" fill="#252A34"/>
</g>
<defs>
<clipPath id="clip0_701_619">
<rect width="19.6923" height="19.6923" fill="white" transform="translate(6.1543 6.15378)"/>
</clipPath>
</defs>
</svg>
