<svg width="32" height="32" viewBox="0 0 32 32" fill="none" xmlns="http://www.w3.org/2000/svg">
<circle cx="16" cy="16" r="16" fill="#D9F5EE"/>
<g clip-path="url(#clip0_701_605)">
<path d="M25.8466 9.89409C25.1143 10.2153 24.334 10.4282 23.5204 10.5316C24.3574 10.0319 24.9961 9.24671 25.2964 8.30025C24.5161 8.76548 23.6546 9.09409 22.7364 9.27748C21.9955 8.48855 20.9395 7.99994 19.7875 7.99994C17.5524 7.99994 15.7531 9.81409 15.7531 12.0381C15.7531 12.3581 15.7801 12.6658 15.8466 12.9587C12.4903 12.795 9.52045 11.1864 7.52537 8.73594C7.17707 9.34025 6.97276 10.0319 6.97276 10.7766C6.97276 12.1747 7.69276 13.4141 8.76599 14.1316C8.11737 14.1193 7.48107 13.931 6.94199 13.6344C6.94199 13.6467 6.94199 13.6627 6.94199 13.6787C6.94199 15.6406 8.34137 17.2701 10.1765 17.6455C9.84784 17.7353 9.48968 17.7784 9.11799 17.7784C8.85953 17.7784 8.5986 17.7636 8.35368 17.7095C8.87676 19.3082 10.3611 20.4836 12.126 20.5218C10.7525 21.5962 9.00845 22.2436 7.12045 22.2436C6.78937 22.2436 6.47184 22.2289 6.1543 22.1882C7.9426 23.3415 10.062 23.9999 12.3475 23.9999C19.7765 23.9999 23.838 17.8461 23.838 12.5119C23.838 12.3335 23.8318 12.1612 23.8232 11.9901C24.6244 11.4215 25.2977 10.7113 25.8466 9.89409Z" fill="#252A34"/>
</g>
<defs>
<clipPath id="clip0_701_605">
<rect width="19.6923" height="19.6923" fill="white" transform="translate(6.1543 6.15378)"/>
</clipPath>
</defs>
</svg>
