<svg width="32" height="32" viewBox="0 0 32 32" fill="none" xmlns="http://www.w3.org/2000/svg">
<circle cx="16" cy="16" r="16" fill="#D9F5EE"/>
<g clip-path="url(#clip0_703_1107)">
<path d="M20.9407 7.47508C19.4323 6.59467 17.7847 6.15454 15.9985 6.15454C14.212 6.15454 12.5645 6.59467 11.0561 7.47508C9.5476 8.35554 8.35314 9.55 7.47289 11.0583C6.59247 12.5669 6.15234 14.2144 6.15234 16.0007C6.15234 17.9921 6.69485 19.7998 7.78047 21.4236C8.86589 23.0478 10.2888 24.2485 12.0497 25.0261C12.0154 24.1115 12.071 23.3553 12.2164 22.757L13.4856 17.398C13.2719 16.9793 13.1651 16.4581 13.1651 15.834C13.1651 15.1075 13.3488 14.5005 13.7163 14.0136C14.0836 13.5262 14.5325 13.2825 15.0625 13.2825C15.4897 13.2825 15.8189 13.4234 16.0497 13.7058C16.2805 13.9877 16.396 14.3425 16.396 14.7698C16.396 15.0349 16.3466 15.3576 16.2486 15.7378C16.1502 16.1182 16.022 16.5583 15.8641 17.0584C15.7059 17.5582 15.5927 17.9578 15.5242 18.257C15.4044 18.7783 15.5028 19.2248 15.8191 19.5967C16.1352 19.9685 16.5541 20.1543 17.0756 20.1543C17.9901 20.1543 18.7401 19.646 19.3257 18.6288C19.9111 17.6117 20.2038 16.3767 20.2038 14.9235C20.2038 13.804 19.8428 12.8935 19.1205 12.1927C18.3983 11.4921 17.3917 11.1414 16.1013 11.1414C14.6567 11.1414 13.4878 11.6053 12.5949 12.5323C11.7018 13.4598 11.2552 14.5689 11.2552 15.8591C11.2552 16.6284 11.4733 17.2739 11.909 17.7952C12.0543 17.9662 12.1013 18.1498 12.0501 18.3462C12.0328 18.3976 11.9987 18.5258 11.9475 18.7308C11.8963 18.9358 11.862 19.0685 11.8449 19.1282C11.7764 19.4019 11.6142 19.4874 11.3576 19.3846C10.6994 19.1111 10.1993 18.6369 9.85763 17.9616C9.51574 17.2866 9.34488 16.5046 9.34488 15.6156C9.34488 15.043 9.43665 14.4703 9.6204 13.8976C9.80415 13.3249 10.0903 12.7716 10.4794 12.2372C10.8681 11.7034 11.3341 11.2309 11.877 10.8207C12.4197 10.4103 13.08 10.0816 13.8578 9.83327C14.6355 9.58563 15.4733 9.46163 16.3707 9.46163C17.5844 9.46163 18.6742 9.73089 19.6399 10.2692C20.6056 10.8078 21.3429 11.5045 21.8515 12.3591C22.3599 13.2137 22.6144 14.1281 22.6144 15.1028C22.6144 16.3849 22.392 17.5387 21.9477 18.5645C21.5032 19.5902 20.875 20.3956 20.063 20.9811C19.2507 21.5664 18.3276 21.8592 17.2936 21.8592C16.7722 21.8592 16.285 21.7375 15.832 21.4937C15.3788 21.2501 15.0669 20.9617 14.896 20.6283C14.5114 22.1409 14.2807 23.0431 14.2037 23.3333C14.0412 23.9403 13.7078 24.641 13.2036 25.4359C14.1181 25.7094 15.0498 25.846 15.9985 25.846C17.7848 25.846 19.4323 25.4059 20.9407 24.5257C22.4492 23.6452 23.6436 22.4508 24.5241 20.9421C25.4043 19.4336 25.8447 17.7864 25.8447 15.9998C25.8447 14.2134 25.4043 12.5661 24.5241 11.0575C23.6438 9.55 22.4492 8.35554 20.9407 7.47508Z" fill="#252A34"/>
</g>
<defs>
<clipPath id="clip0_703_1107">
<rect width="19.6923" height="19.6923" fill="white" transform="translate(6.15234 6.15381)"/>
</clipPath>
</defs>
</svg>
