<svg width="32" height="32" viewBox="0 0 32 32" fill="none" xmlns="http://www.w3.org/2000/svg">
<circle cx="16" cy="16" r="16" fill="#D9F5EE"/>
<g clip-path="url(#clip0_701_626)">
<path d="M24.8409 11.3856C24.6282 10.5947 24.0046 9.97125 23.2138 9.75829C21.7691 9.36301 15.9903 9.36301 15.9903 9.36301C15.9903 9.36301 10.2117 9.36301 8.76705 9.7433C7.99147 9.95604 7.35269 10.5948 7.13995 11.3856C6.75977 12.8302 6.75977 15.826 6.75977 15.826C6.75977 15.826 6.75977 18.8369 7.13995 20.2664C7.35291 21.0572 7.97626 21.6806 8.76716 21.8936C10.2269 22.289 15.9905 22.289 15.9905 22.289C15.9905 22.289 21.7691 22.289 23.2138 21.9087C24.0047 21.6958 24.6282 21.0724 24.8411 20.2816C25.2212 18.8369 25.2212 15.8412 25.2212 15.8412C25.2212 15.8412 25.2364 12.8302 24.8409 11.3856ZM14.1505 18.5936V13.0584L18.9558 15.826L14.1505 18.5936Z" fill="#252A34"/>
</g>
<defs>
<clipPath id="clip0_701_626">
<rect width="19.6923" height="19.6923" fill="white" transform="translate(6.1543 6.15378)"/>
</clipPath>
</defs>
</svg>
