<svg width="32" height="32" viewBox="0 0 32 32" fill="none" xmlns="http://www.w3.org/2000/svg">
<circle cx="16" cy="16" r="16" fill="#D9F5EE"/>
<g clip-path="url(#clip0_701_612)">
<path d="M17.7311 16C17.7311 16.9559 16.9561 17.7308 16.0003 17.7308C15.0445 17.7308 14.2695 16.9559 14.2695 16C14.2695 15.0442 15.0445 14.2693 16.0003 14.2693C16.9561 14.2693 17.7311 15.0442 17.7311 16Z" fill="#252A34"/>
<path d="M18.9234 10.7693H13.0772C11.8047 10.7693 10.7695 11.8044 10.7695 13.0769V18.9231C10.7695 20.1956 11.8047 21.2308 13.0772 21.2308H18.9234C20.1959 21.2308 21.2311 20.1956 21.2311 18.9231V13.0769C21.2311 11.8044 20.1959 10.7693 18.9234 10.7693ZM16.0003 18.8846C14.4097 18.8846 13.1157 17.5906 13.1157 16C13.1157 14.4094 14.4097 13.1154 16.0003 13.1154C17.5909 13.1154 18.8849 14.4094 18.8849 16C18.8849 17.5906 17.5909 18.8846 16.0003 18.8846ZM19.308 13.2693C18.9893 13.2693 18.7311 13.011 18.7311 12.6923C18.7311 12.3737 18.9893 12.1154 19.308 12.1154C19.6267 12.1154 19.8849 12.3737 19.8849 12.6923C19.8849 13.011 19.6267 13.2693 19.308 13.2693Z" fill="#252A34"/>
<path d="M20.6543 6.15378H11.3466C8.48362 6.15378 6.1543 8.4831 6.1543 11.3461V20.6538C6.1543 23.5168 8.48362 25.8461 11.3466 25.8461H20.6543C23.5173 25.8461 25.8466 23.5168 25.8466 20.6538V11.3461C25.8466 8.4831 23.5173 6.15378 20.6543 6.15378ZM22.3851 18.923C22.3851 20.8317 20.8322 22.3845 18.9235 22.3845H13.0774C11.1687 22.3845 9.61584 20.8317 9.61584 18.923V13.0769C9.61584 11.1682 11.1687 9.61532 13.0774 9.61532H18.9235C20.8322 9.61532 22.3851 11.1682 22.3851 13.0769V18.923Z" fill="#252A34"/>
</g>
<defs>
<clipPath id="clip0_701_612">
<rect width="19.6923" height="19.6923" fill="white" transform="translate(6.1543 6.15378)"/>
</clipPath>
</defs>
</svg>
