<svg width="32" height="32" viewBox="0 0 32 32" fill="none" xmlns="http://www.w3.org/2000/svg">
<circle cx="16" cy="16" r="16" fill="#D9F5EE"/>
<g clip-path="url(#clip0_703_1100)">
<path d="M17.7291 16.0001C17.7291 16.9559 16.9542 17.7308 15.9983 17.7308C15.0425 17.7308 14.2676 16.9559 14.2676 16.0001C14.2676 15.0442 15.0425 14.2693 15.9983 14.2693C16.9542 14.2693 17.7291 15.0442 17.7291 16.0001Z" fill="#252A34"/>
<path d="M18.9214 10.7693H13.0753C11.8027 10.7693 10.7676 11.8044 10.7676 13.077V18.9231C10.7676 20.1957 11.8027 21.2308 13.0753 21.2308H18.9214C20.194 21.2308 21.2291 20.1957 21.2291 18.9231V13.077C21.2291 11.8044 20.194 10.7693 18.9214 10.7693ZM15.9983 18.8847C14.4078 18.8847 13.1137 17.5907 13.1137 16.0001C13.1137 14.4095 14.4078 13.1154 15.9983 13.1154C17.5889 13.1154 18.883 14.4095 18.883 16.0001C18.883 17.5907 17.5889 18.8847 15.9983 18.8847ZM19.306 13.2693C18.9874 13.2693 18.7291 13.011 18.7291 12.6924C18.7291 12.3737 18.9874 12.1154 19.306 12.1154C19.6247 12.1154 19.883 12.3737 19.883 12.6924C19.883 13.011 19.6247 13.2693 19.306 13.2693Z" fill="#252A34"/>
<path d="M20.6523 6.15381H11.3447C8.48167 6.15381 6.15234 8.48314 6.15234 11.3461V20.6538C6.15234 23.5168 8.48167 25.8461 11.3447 25.8461H20.6523C23.5153 25.8461 25.8447 23.5168 25.8447 20.6538V11.3461C25.8447 8.48314 23.5153 6.15381 20.6523 6.15381ZM22.3831 18.923C22.3831 20.8317 20.8302 22.3846 18.9216 22.3846H13.0754C11.1668 22.3846 9.61388 20.8317 9.61388 18.923V13.0769C9.61388 11.1682 11.1668 9.61535 13.0754 9.61535H18.9216C20.8302 9.61535 22.3831 11.1682 22.3831 13.0769V18.923Z" fill="#252A34"/>
</g>
<defs>
<clipPath id="clip0_703_1100">
<rect width="19.6923" height="19.6923" fill="white" transform="translate(6.15234 6.15381)"/>
</clipPath>
</defs>
</svg>
