<svg width="32" height="32" viewBox="0 0 32 32" fill="none" xmlns="http://www.w3.org/2000/svg">
<path d="M27.5657 4.9681L27.566 4.96831C32.0086 8.70781 31.3307 14.7816 28.1903 17.9916L28.1897 17.9922L18.4454 27.9171C17.796 28.5793 16.9285 28.9446 15.9996 28.9446C15.0743 28.9446 14.202 28.5725 13.5539 27.9118C13.5538 27.9117 13.5538 27.9116 13.5537 27.9115L3.80945 17.9867L3.80916 17.9864C0.662189 14.7757 -0.00330889 8.70188 4.43301 4.96842L27.5657 4.9681ZM27.5657 4.9681C24.2584 2.18797 19.255 2.51081 15.9996 5.48932M27.5657 4.9681L15.9996 5.48932M25.205 7.77142C23.2757 6.14687 20.2372 6.35642 18.3007 8.32824L16.3566 10.3108L15.9996 10.6748L15.6426 10.3108L13.6984 8.32823C11.7728 6.36737 8.73398 6.14681 6.79357 7.77742L25.205 7.77142ZM25.205 7.77142C27.7859 9.94764 27.4174 13.5379 25.5761 15.4144C25.5761 15.4144 25.576 15.4144 25.576 15.4145L15.9996 25.1684M25.205 7.77142L15.9996 25.1684M15.9996 5.48932C12.7445 2.51085 7.741 2.18216 4.43319 4.96827L15.9996 5.48932ZM15.9996 25.1684L6.42308 15.4144C4.5656 13.5219 4.20736 9.95416 6.79347 7.7775L15.9996 25.1684ZM15.8281 25.3425C15.8281 25.3425 15.829 25.3416 15.8308 25.3402C15.829 25.3419 15.8281 25.3426 15.8281 25.3425ZM16.1711 25.3425C16.1711 25.3426 16.1702 25.3419 16.1684 25.3402C16.1701 25.3416 16.171 25.3425 16.1711 25.3425Z" fill="#219D80" stroke="#219D80"/>
</svg>
