<svg width="91" height="91" viewBox="0 0 91 91" fill="none" xmlns="http://www.w3.org/2000/svg">
<g clip-path="url(#clip0_701_423)">
<path d="M0.0193478 63.1458C0.0193478 75.1098 9.71753 84.808 21.6814 84.808C33.6454 84.808 43.3436 75.1098 43.3436 63.1458C43.3436 51.1817 33.6454 41.4837 21.6814 41.4837C19.2226 41.4837 16.869 41.9124 14.6657 42.6677C19.5406 14.709 41.343 -3.32128 21.1322 11.518C-1.27854 27.973 -0.00465403 62.4837 0.0204225 63.1162C0.0204225 63.1261 0.0193478 63.1348 0.0193478 63.1458Z" fill="white" fill-opacity="0.2"/>
<path d="M47.6756 63.1458C47.6756 75.1098 57.3738 84.808 69.3378 84.808C81.3018 84.808 91 75.1098 91 63.1458C91 51.1817 81.3017 41.4837 69.3376 41.4837C66.8787 41.4837 64.5253 41.9124 62.3219 42.6677C67.1968 14.709 88.9993 -3.32128 68.7885 11.518C46.3778 27.973 47.6515 62.4837 47.6767 63.1162C47.6767 63.1261 47.6756 63.1348 47.6756 63.1458Z" fill="white" fill-opacity="0.2"/>
</g>
<defs>
<clipPath id="clip0_701_423">
<rect width="91" height="91" fill="white"/>
</clipPath>
</defs>
</svg>
