<svg width="362" height="131" viewBox="0 0 362 131" fill="none" xmlns="http://www.w3.org/2000/svg">
<path d="M362 130.546V0.679565L318.951 23.8367C299.822 34.1537 299.822 50.8814 318.951 61.1984L319.993 61.7404C322.596 63.1421 322.596 65.4223 319.993 66.8428C317.354 68.2446 313.119 68.2446 310.515 66.8428L252.816 35.7797C243.755 30.9016 229.035 30.9016 219.974 35.7797C210.878 40.6579 210.878 48.5825 219.974 53.4606L303.225 98.2984C305.689 99.6067 305.689 101.737 303.225 103.064C300.794 104.373 296.837 104.373 294.372 103.064L238.165 72.7863C222.092 64.1514 196.089 64.1514 180.05 72.7863C163.976 81.4211 163.976 95.4388 180.05 104.074L216.815 123.867L194.561 125.511L93.5354 71.1228C82.0442 64.9177 63.3665 64.9177 51.8406 71.1228C40.3493 77.328 40.3493 87.3833 51.8406 93.5697C57.2911 96.5041 81.454 109.512 84.9604 111.4C87.2169 112.615 87.2169 114.596 84.9256 115.83L84.8215 115.886C82.6343 117.063 79.0585 117.063 76.8714 115.886L66.4216 110.26C53.8194 103.476 33.3366 103.476 20.6997 110.26L0 130.546" fill="#F3FFFD" fill-opacity="0.2"/>
</svg>
