<svg width="236" height="158" viewBox="0 0 236 158" fill="none" xmlns="http://www.w3.org/2000/svg">
<path d="M236 158V0L207.935 28.1737C195.464 40.7256 195.464 61.0771 207.935 73.629L208.614 74.2885C210.312 75.9939 210.312 78.7681 208.614 80.4962C206.894 82.2017 204.133 82.2017 202.435 80.4962L164.819 42.7039C158.912 36.769 149.316 36.769 143.408 42.7039C137.478 48.6388 137.478 58.2802 143.408 64.2151L197.682 118.766C199.289 120.358 199.289 122.95 197.682 124.565C196.098 126.156 193.518 126.156 191.911 124.565L155.268 87.7272C144.789 77.2218 127.837 77.2218 117.38 87.7272C106.901 98.2327 106.901 115.287 117.38 125.792L141.349 149.873L126.841 151.874L60.9789 85.7035C53.4873 78.1541 41.3108 78.1541 33.7966 85.7035C26.3051 93.2528 26.3051 105.486 33.7966 113.013C37.35 116.583 53.1026 132.409 55.3885 134.706C56.8597 136.184 56.8597 138.594 55.3659 140.095L55.298 140.163C53.8721 141.596 51.5409 141.596 50.115 140.163L43.3025 133.319C35.0867 125.065 21.7332 125.065 13.4948 133.319L0 158" fill="#F3FFFD" fill-opacity="0.2"/>
</svg>
