<svg width="362" height="248" viewBox="0 0 362 248" fill="none" xmlns="http://www.w3.org/2000/svg">
<path d="M362 247.751V0.273438L318.951 44.4022C299.822 64.0625 299.822 95.9393 318.951 115.6L319.993 116.632C322.596 119.304 322.596 123.649 319.993 126.356C317.354 129.027 313.119 129.027 310.515 126.356L252.816 67.1612C243.755 57.8653 229.035 57.8653 219.974 67.1612C210.878 76.4571 210.878 91.5585 219.974 100.854L303.225 186.298C305.689 188.791 305.689 192.852 303.225 195.381C300.794 197.874 296.837 197.874 294.372 195.381L238.165 137.682C222.092 121.227 196.089 121.227 180.05 137.682C163.976 154.137 163.976 180.849 180.05 197.304L216.815 235.022L194.561 238.156L93.5354 134.512C82.0442 122.687 63.3665 122.687 51.8406 134.512C40.3493 146.337 40.3493 165.498 51.8406 177.287C57.2911 182.879 81.454 207.668 84.9604 211.265C87.2169 213.581 87.2169 217.356 84.9256 219.707L84.8215 219.813C82.6343 222.057 79.0585 222.057 76.8714 219.813L66.4216 209.093C53.8194 196.164 33.3366 196.164 20.6997 209.093L0 247.751" fill="#F3FFFD" fill-opacity="0.2"/>
</svg>
