<svg width="362" height="56" viewBox="0 0 362 56" fill="none" xmlns="http://www.w3.org/2000/svg">
<path d="M362 55.8057V0.492805L318.951 10.3559C299.822 14.7501 299.822 21.8748 318.951 26.269L319.993 26.4998C322.596 27.0969 322.596 28.068 319.993 28.673C317.354 29.2701 313.119 29.2701 310.515 28.673L252.816 15.4427C243.755 13.365 229.035 13.365 219.974 15.4427C210.878 17.5204 210.878 20.8956 219.974 22.9733L303.225 42.0706C305.689 42.6278 305.689 43.5353 303.225 44.1005C300.794 44.6578 296.837 44.6578 294.372 44.1005L238.165 31.2045C222.092 27.5267 196.089 27.5267 180.05 31.2045C163.976 34.8822 163.976 40.8526 180.05 44.5304L216.815 52.9606L194.561 53.6611L93.5354 30.496C82.0442 27.8531 63.3665 27.8531 51.8406 30.496C40.3493 33.1389 40.3493 37.4216 51.8406 40.0566C57.2911 41.3064 81.454 46.8469 84.9604 47.6509C87.2169 48.1683 87.2169 49.0122 84.9256 49.5376L84.8215 49.5614C82.6343 50.0629 79.0585 50.0629 76.8714 49.5614L66.4216 47.1653C53.8194 44.2756 33.3366 44.2756 20.6997 47.1653L0 55.8057" fill="#F3FFFD" fill-opacity="0.2"/>
</svg>
