<svg width="112" height="25" viewBox="0 0 112 25" fill="none" xmlns="http://www.w3.org/2000/svg">
<path fill-rule="evenodd" clip-rule="evenodd" d="M0.374291 12C0.317472 12.5234 0.289062 13.0634 0.289062 13.62C0.289062 17.04 1.20906 19.7 3.04906 21.6C4.88906 23.48 7.53906 24.42 10.9991 24.42C12.5391 24.42 14.1791 23.92 15.9191 22.92C16.6591 22.5 17.1991 22.29 17.5391 22.29C17.7991 22.29 17.9991 22.47 18.1391 22.83C18.2991 23.19 18.3891 23.58 18.4091 24H19.0091V18.06C19.0091 17.3 19.0391 16.75 19.0991 16.41C19.1791 16.07 19.3091 15.84 19.4891 15.72C19.6691 15.6 19.9591 15.52 20.3591 15.48V14.88C19.4591 14.94 18.1191 14.97 16.3391 14.97C14.1591 14.97 12.4491 14.94 11.2091 14.88V15.48C12.0891 15.52 12.7291 15.62 13.1291 15.78C13.5491 15.94 13.8391 16.24 13.9991 16.68C14.1591 17.1 14.2391 17.78 14.2391 18.72V21.66C14.2391 22.04 14.1791 22.35 14.0591 22.59C13.9591 22.83 13.7791 23.04 13.5191 23.22C12.9791 23.62 12.2691 23.82 11.3891 23.82C7.54906 23.82 5.62906 20.36 5.62906 13.44C5.62906 12.9496 5.64436 12.4696 5.67495 12H0.374291ZM23.6996 12V21.21C23.6996 22.03 23.5596 22.6 23.2796 22.92C22.9996 23.22 22.4996 23.37 21.7796 23.37V24C23.9396 23.92 25.3296 23.88 25.9496 23.88C26.6096 23.88 27.9396 23.92 29.9396 24V23.37C29.2396 23.37 28.7396 23.22 28.4396 22.92C28.1596 22.6 28.0196 22.03 28.0196 21.21V12H23.6996ZM32.3586 12L37.2153 24.06C37.4353 24.04 37.7553 24.03 38.1753 24.03C38.6153 24.03 38.9453 24.04 39.1653 24.06L43.4287 12H42.5847C42.5243 12.5574 42.3745 13.1874 42.1353 13.89L39.9753 19.83L37.0294 12H32.3586ZM44.9991 8.54079V9.38626C45.1939 9.25049 45.3993 9.15175 45.6153 9.09004V8.49004C45.4387 8.51042 45.2333 8.52733 44.9991 8.54079ZM58.7002 19.56C57.7002 21.16 56.3802 21.96 54.7402 21.96C54.0602 21.96 53.4202 21.76 52.8202 21.36C52.2402 20.96 51.7602 20.32 51.3802 19.44C51.0202 18.56 50.8402 17.46 50.8402 16.14C50.8402 15.5 50.8502 15.03 50.8702 14.73H59.3002C59.3002 10.29 57.4202 8.07004 53.6602 8.07004C51.4402 8.07004 49.6602 8.79004 48.3202 10.23C46.9802 11.65 46.3102 13.71 46.3102 16.41C46.3102 19.05 46.9302 21.05 48.1702 22.41C49.4302 23.75 51.1202 24.42 53.2402 24.42C54.7802 24.42 56.0602 23.97 57.0802 23.07C58.1202 22.15 58.8402 21.04 59.2402 19.74L58.7002 19.56ZM51.6802 10.05C52.1602 9.15004 52.7602 8.70004 53.4802 8.70004C54.1802 8.70004 54.7002 9.22004 55.0402 10.26C55.4002 11.28 55.5602 12.58 55.5202 14.16H50.8102C50.9302 12.3 51.2202 10.93 51.6802 10.05ZM68.8752 3.60004C69.2152 3.48004 69.7452 3.40004 70.4652 3.36004V2.76004C69.3652 2.82004 67.7952 2.85004 65.7552 2.85004C63.6152 2.85004 62.0352 2.82004 61.0152 2.76004V3.36004C61.6752 3.40004 62.1552 3.48004 62.4552 3.60004C62.7752 3.72004 62.9852 3.95004 63.0852 4.29004C63.2052 4.63004 63.2652 5.18004 63.2652 5.94004V20.82C63.2652 21.58 63.2052 22.13 63.0852 22.47C62.9852 22.81 62.7752 23.04 62.4552 23.16C62.1552 23.28 61.6752 23.36 61.0152 23.4V24C63.1752 23.94 66.4352 23.91 70.7952 23.91C74.0152 23.91 76.3052 23.94 77.6652 24C77.5252 22.76 77.4552 21.18 77.4552 19.26C77.4552 18.18 77.4852 17.3 77.5452 16.62H76.8552C76.5552 18.64 75.9052 20.26 74.9052 21.48C73.9252 22.7 72.7552 23.31 71.3952 23.31H69.9252C69.3652 23.31 68.9552 23.26 68.6952 23.16C68.4552 23.06 68.2852 22.87 68.1852 22.59C68.0852 22.29 68.0352 21.82 68.0352 21.18V5.94004C68.0352 5.18004 68.0952 4.63004 68.2152 4.29004C68.3352 3.95004 68.5552 3.72004 68.8752 3.60004ZM84.935 1.38004C84.455 0.960041 83.795 0.750041 82.955 0.750041C82.115 0.750041 81.445 0.960041 80.945 1.38004C80.465 1.78004 80.225 2.34004 80.225 3.06004C80.225 3.78004 80.465 4.35004 80.945 4.77004C81.445 5.17004 82.115 5.37004 82.955 5.37004C83.795 5.37004 84.455 5.17004 84.935 4.77004C85.435 4.35004 85.685 3.78004 85.685 3.06004C85.685 2.34004 85.435 1.78004 84.935 1.38004ZM85.715 22.92C85.435 22.6 85.295 22.03 85.295 21.21V8.16004C84.155 8.44004 82.695 8.58004 80.915 8.58004C80.315 8.58004 79.695 8.55004 79.055 8.49004V9.12004C79.775 9.12004 80.275 9.33004 80.555 9.75004C80.835 10.17 80.975 10.84 80.975 11.76V21.21C80.975 22.03 80.835 22.6 80.555 22.92C80.275 23.22 79.775 23.37 79.055 23.37V24C81.215 23.92 82.605 23.88 83.225 23.88C83.885 23.88 85.215 23.92 87.215 24V23.37C86.515 23.37 86.015 23.22 85.715 22.92ZM99.6479 1.53004C98.7479 0.870041 97.6779 0.540039 96.4379 0.540039C95.6179 0.540039 94.8379 0.680041 94.0979 0.960042C93.3579 1.24004 92.7679 1.60004 92.3279 2.04004C91.6279 2.72004 91.1379 3.54004 90.8579 4.50004C90.5779 5.44004 90.4379 6.78004 90.4379 8.52004H88.3979V9.12004H90.4379V21.21C90.4379 22.03 90.2979 22.6 90.0179 22.92C89.7379 23.22 89.2379 23.37 88.5179 23.37V24C90.5179 23.92 91.8179 23.88 92.4179 23.88C93.0779 23.88 94.5179 23.91 96.7379 23.97L97.5779 24V23.37C96.6379 23.37 95.9279 23.19 95.4479 22.83C94.9879 22.47 94.7579 21.83 94.7579 20.91V9.12004H97.9679V8.52004H94.7579V5.79004C94.7579 4.63004 94.7979 3.76004 94.8779 3.18004C94.9579 2.60004 95.1079 2.16004 95.3279 1.86004C95.6479 1.34004 96.1879 1.08004 96.9479 1.08004C97.2279 1.08004 97.4579 1.12004 97.6379 1.20004C97.8379 1.28004 97.9679 1.38004 98.0279 1.50004C97.4479 1.66004 97.0079 1.94004 96.7079 2.34004C96.4079 2.74004 96.2579 3.20004 96.2579 3.72004C96.2579 4.38004 96.4679 4.90004 96.8879 5.28004C97.3079 5.66004 97.8579 5.85004 98.5379 5.85004C99.1579 5.85004 99.6679 5.65004 100.068 5.25004C100.468 4.83004 100.668 4.34004 100.668 3.78004C100.668 3.30004 100.568 2.87004 100.368 2.49004C100.188 2.09004 99.9479 1.77004 99.6479 1.53004ZM111.317 19.56C110.317 21.16 108.997 21.96 107.357 21.96C106.677 21.96 106.037 21.76 105.437 21.36C104.857 20.96 104.377 20.32 103.997 19.44C103.637 18.56 103.457 17.46 103.457 16.14C103.457 15.5 103.467 15.03 103.487 14.73H111.917C111.917 10.29 110.037 8.07004 106.277 8.07004C104.057 8.07004 102.277 8.79004 100.937 10.23C99.5974 11.65 98.9274 13.71 98.9274 16.41C98.9274 19.05 99.5474 21.05 100.787 22.41C102.047 23.75 103.737 24.42 105.857 24.42C107.397 24.42 108.677 23.97 109.697 23.07C110.737 22.15 111.457 21.04 111.857 19.74L111.317 19.56ZM104.297 10.05C104.777 9.15004 105.377 8.70004 106.097 8.70004C106.797 8.70004 107.317 9.22004 107.657 10.26C108.017 11.28 108.177 12.58 108.137 14.16H103.427C103.547 12.3 103.837 10.93 104.297 10.05Z" fill="white"/>
</svg>
