<svg width="120" height="25" viewBox="0 0 120 25" fill="none" xmlns="http://www.w3.org/2000/svg">
<path fill-rule="evenodd" clip-rule="evenodd" d="M0.371709 12C0.316611 12.5221 0.289062 13.0621 0.289062 13.62C0.289062 15.88 0.689062 17.82 1.48906 19.44C2.30906 21.04 3.51906 22.27 5.11906 23.13C6.71906 23.99 8.67906 24.42 10.9991 24.42C11.8991 24.42 12.7591 24.28 13.5791 24C14.3991 23.7 15.1791 23.34 15.9191 22.92C16.3991 22.64 16.7491 22.47 16.9691 22.41C17.2091 22.33 17.3991 22.29 17.5391 22.29C17.8391 22.29 18.0491 22.49 18.1691 22.89C18.3091 23.29 18.3891 23.66 18.4091 24H19.0091V18.06C19.0091 17.32 19.0391 16.77 19.0991 16.41C19.1791 16.05 19.3091 15.81 19.4891 15.69C19.6891 15.57 19.9791 15.5 20.3591 15.48V14.88C19.9191 14.9 19.3491 14.92 18.6491 14.94C17.9491 14.96 17.1791 14.97 16.3391 14.97H14.5691C13.9291 14.95 13.3091 14.94 12.7091 14.94C12.1291 14.92 11.6291 14.9 11.2091 14.88V15.48C12.0491 15.5 12.6891 15.59 13.1291 15.75C13.5691 15.91 13.8591 16.22 13.9991 16.68C14.1591 17.12 14.2391 17.8 14.2391 18.72V21.66C14.2391 22.04 14.1891 22.35 14.0891 22.59C13.9891 22.81 13.7991 23.02 13.5191 23.22C13.2991 23.38 13.0091 23.52 12.6491 23.64C12.2891 23.76 11.8691 23.82 11.3891 23.82C9.52906 23.82 8.09906 22.99 7.09906 21.33C6.11906 19.67 5.62906 17.04 5.62906 13.44C5.62906 12.9532 5.64538 12.4732 5.67802 12H0.371709ZM23.6996 12V21.21C23.6996 22.05 23.5496 22.62 23.2496 22.92C22.9696 23.22 22.4796 23.37 21.7796 23.37V24C22.1796 23.98 22.7796 23.96 23.5796 23.94C24.3796 23.9 25.1696 23.88 25.9496 23.88C26.7296 23.88 27.4996 23.9 28.2596 23.94C29.0196 23.96 29.5796 23.98 29.9396 24V23.37C29.2396 23.37 28.7396 23.22 28.4396 22.92C28.1596 22.62 28.0196 22.05 28.0196 21.21V12H23.6996ZM32.3586 12L37.2153 24.06C37.5353 24.04 37.8553 24.03 38.1753 24.03C38.5153 24.03 38.8453 24.04 39.1653 24.06L43.4287 12H42.6016C42.5436 12.5415 42.3881 13.1715 42.1353 13.89L39.9894 19.8389L37.0309 12H32.3586ZM44.9991 8.52878V9.38736C45.1983 9.24484 45.4037 9.14573 45.6153 9.09004V8.49004C45.4474 8.50296 45.242 8.51587 44.9991 8.52878ZM57.8002 9.63004C56.8002 8.59004 55.4202 8.07004 53.6602 8.07004C52.2402 8.07004 50.9702 8.38004 49.8502 9.00004C48.7502 9.60004 47.8802 10.52 47.2402 11.76C46.6202 13 46.3102 14.55 46.3102 16.41C46.3102 18.23 46.6002 19.73 47.1802 20.91C47.7802 22.09 48.6002 22.97 49.6402 23.55C50.6802 24.13 51.8802 24.42 53.2402 24.42C54.3602 24.42 55.3202 24.19 56.1202 23.73C56.9202 23.27 57.5802 22.68 58.1002 21.96C58.6202 21.24 59.0002 20.5 59.2402 19.74L58.7002 19.56C58.3002 20.2 57.8702 20.7 57.4102 21.06C56.9502 21.4 56.4902 21.64 56.0302 21.78C55.5902 21.9 55.1602 21.96 54.7402 21.96C54.1202 21.96 53.5102 21.77 52.9102 21.39C52.3102 20.99 51.8102 20.36 51.4102 19.5C51.0302 18.64 50.8402 17.52 50.8402 16.14V15.33C50.8561 15.1237 50.872 14.9237 50.8878 14.73H59.3002C59.3002 12.37 58.8002 10.67 57.8002 9.63004ZM50.823 14.16H55.5202C55.5402 13.18 55.4802 12.28 55.3402 11.46C55.2002 10.62 54.9802 9.95004 54.6802 9.45004C54.3802 8.95004 53.9802 8.70004 53.4802 8.70004C52.7802 8.70004 52.1802 9.14004 51.6802 10.02C51.2193 10.8651 50.9335 12.2451 50.823 14.16ZM76.2294 3.60004C76.5894 3.46004 77.1094 3.38004 77.7894 3.36004V2.76004C77.2294 2.78004 76.5194 2.80004 75.6594 2.82004C74.8194 2.84004 73.9594 2.85004 73.0794 2.85004C72.1194 2.85004 71.2094 2.84004 70.3494 2.82004C69.5094 2.80004 68.8394 2.78004 68.3394 2.76004V3.36004C68.9594 3.38004 69.4294 3.46004 69.7494 3.60004C70.0894 3.72004 70.3094 3.96004 70.4094 4.32004C70.5294 4.66004 70.5894 5.20004 70.5894 5.94004V20.82C70.5894 21.54 70.5294 22.08 70.4094 22.44C70.3094 22.8 70.0994 23.04 69.7794 23.16C69.4594 23.28 68.9794 23.36 68.3394 23.4V24C69.1594 23.98 70.0294 23.97 70.9494 23.97C71.8694 23.95 72.7794 23.94 73.6794 23.94C74.5794 23.92 75.4194 23.91 76.1994 23.91H78.1194C79.1194 23.91 80.2594 23.92 81.5394 23.94C82.8194 23.94 83.9694 23.96 84.9894 24C84.8894 23.06 84.8294 22.15 84.8094 21.27C84.7894 20.39 84.7794 19.72 84.7794 19.26C84.7794 18.18 84.8094 17.3 84.8694 16.62H84.1794C84.0194 17.62 83.7794 18.53 83.4594 19.35C83.1394 20.17 82.7394 20.88 82.2594 21.48C81.7794 22.06 81.2394 22.51 80.6394 22.83C80.0394 23.15 79.3994 23.31 78.7194 23.31H77.2494C76.7094 23.31 76.2994 23.26 76.0194 23.16C75.7594 23.06 75.5794 22.86 75.4794 22.56C75.3994 22.26 75.3594 21.8 75.3594 21.18V5.94004C75.3594 5.20004 75.4194 4.66004 75.5394 4.32004C75.6594 3.96004 75.8894 3.72004 76.2294 3.60004ZM92.2592 1.38004C91.7792 0.960041 91.1192 0.750041 90.2792 0.750041C89.4392 0.750041 88.7692 0.960041 88.2692 1.38004C87.7892 1.78004 87.5492 2.34004 87.5492 3.06004C87.5492 3.78004 87.7892 4.35004 88.2692 4.77004C88.7692 5.17004 89.4392 5.37004 90.2792 5.37004C91.1192 5.37004 91.7792 5.17004 92.2592 4.77004C92.7592 4.35004 93.0092 3.78004 93.0092 3.06004C93.0092 2.34004 92.7592 1.78004 92.2592 1.38004ZM92.6192 21.21V8.16004C91.9992 8.30004 91.3192 8.41004 90.5792 8.49004C89.8592 8.55004 89.0792 8.58004 88.2392 8.58004C87.6392 8.58004 87.0192 8.55004 86.3792 8.49004V9.12004C87.1192 9.12004 87.6192 9.34004 87.8792 9.78004C88.1592 10.2 88.2992 10.86 88.2992 11.76V21.21C88.2992 22.05 88.1492 22.62 87.8492 22.92C87.5692 23.22 87.0792 23.37 86.3792 23.37V24C86.7792 23.98 87.3792 23.96 88.1792 23.94C88.9792 23.9 89.7692 23.88 90.5492 23.88C91.3292 23.88 92.0992 23.9 92.8592 23.94C93.6192 23.96 94.1792 23.98 94.5392 24V23.37C93.8392 23.37 93.3392 23.22 93.0392 22.92C92.7592 22.62 92.6192 22.05 92.6192 21.21ZM105.592 0.81004C105.072 0.63004 104.462 0.540039 103.762 0.540039C102.922 0.540039 102.132 0.69004 101.392 0.990041C100.672 1.27004 100.092 1.62004 99.6521 2.04004C99.1921 2.48004 98.8221 2.98004 98.5421 3.54004C98.2621 4.10004 98.0621 4.78004 97.9421 5.58004C97.8221 6.36004 97.7621 7.34004 97.7621 8.52004H95.7221V9.12004H97.7621V21.21C97.7621 22.05 97.6121 22.62 97.3121 22.92C97.0321 23.22 96.5421 23.37 95.8421 23.37V24C96.2221 23.98 96.7721 23.96 97.4921 23.94C98.2321 23.9 98.9821 23.88 99.7421 23.88C100.782 23.88 101.772 23.9 102.712 23.94C103.652 23.96 104.382 23.98 104.902 24V23.37C104.022 23.37 103.332 23.21 102.832 22.89C102.332 22.55 102.082 21.89 102.082 20.91V9.12004H105.292V8.52004H102.082V5.79004C102.082 4.61004 102.122 3.74004 102.202 3.18004C102.282 2.60004 102.432 2.16004 102.652 1.86004C102.812 1.62004 103.022 1.43004 103.282 1.29004C103.542 1.15004 103.872 1.08004 104.272 1.08004C104.572 1.08004 104.812 1.12004 104.992 1.20004C105.172 1.28004 105.292 1.38004 105.352 1.50004C104.772 1.66004 104.332 1.94004 104.032 2.34004C103.732 2.74004 103.582 3.20004 103.582 3.72004C103.582 4.38004 103.792 4.90004 104.212 5.28004C104.652 5.66004 105.202 5.85004 105.862 5.85004C106.502 5.85004 107.012 5.64004 107.392 5.22004C107.792 4.80004 107.992 4.32004 107.992 3.78004C107.992 3.28004 107.892 2.84004 107.692 2.46004C107.492 2.06004 107.252 1.75004 106.972 1.53004C106.572 1.23004 106.112 0.99004 105.592 0.81004ZM117.742 9.63004C116.742 8.59004 115.362 8.07004 113.602 8.07004C112.182 8.07004 110.912 8.38004 109.792 9.00004C108.692 9.60004 107.822 10.52 107.182 11.76C106.562 13 106.252 14.55 106.252 16.41C106.252 18.23 106.542 19.73 107.122 20.91C107.722 22.09 108.542 22.97 109.582 23.55C110.622 24.13 111.822 24.42 113.182 24.42C114.302 24.42 115.262 24.19 116.062 23.73C116.862 23.27 117.522 22.68 118.042 21.96C118.562 21.24 118.942 20.5 119.182 19.74L118.642 19.56C118.242 20.2 117.812 20.7 117.352 21.06C116.892 21.4 116.432 21.64 115.972 21.78C115.532 21.9 115.102 21.96 114.682 21.96C114.062 21.96 113.452 21.77 112.852 21.39C112.252 20.99 111.752 20.36 111.352 19.5C110.972 18.64 110.782 17.52 110.782 16.14V15.33C110.798 15.1237 110.813 14.9237 110.829 14.73H119.242C119.242 12.37 118.742 10.67 117.742 9.63004ZM110.764 14.16H115.462C115.482 13.18 115.422 12.28 115.282 11.46C115.142 10.62 114.922 9.95004 114.622 9.45004C114.322 8.95004 113.922 8.70004 113.422 8.70004C112.722 8.70004 112.122 9.14004 111.622 10.02C111.161 10.8651 110.875 12.2451 110.764 14.16Z" fill="white"/>
</svg>
