<svg width="11" height="2" viewBox="0 0 11 2" fill="none" xmlns="http://www.w3.org/2000/svg">
<path d="M10.7579 0.135179C10.6028 0.101461 10.3925 0.0825195 10.1732 0.0825195C9.95392 0.0825195 9.74361 0.101461 9.58853 0.135179L5.49501 1.02547L1.40148 0.135179C1.24551 0.102417 1.03662 0.0842882 0.819788 0.084698C0.602958 0.0851078 0.395542 0.104023 0.242214 0.13737C0.0888863 0.170717 0.00191593 0.215827 3.14713e-05 0.262985C-0.00185299 0.310143 0.081502 0.355575 0.232141 0.389496L4.91034 1.40694C5.06542 1.44066 5.27572 1.4596 5.49501 1.4596C5.71429 1.4596 5.9246 1.44066 6.07968 1.40694L10.7579 0.389496C10.9129 0.355768 11 0.310029 11 0.262338C11 0.214646 10.9129 0.168907 10.7579 0.135179Z" fill="#DDDDDD"/>
</svg>
